<svg width="1174" height="133" viewBox="0 0 1174 133" fill="none" xmlns="http://www.w3.org/2000/svg">
<g clip-path="url(#clip0_86_134)">
<g opacity="0.3">
<path d="M45.6322 78.5169C45.6322 89.5565 36.0886 98.5047 24.3157 98.5047C12.5427 98.5047 3 89.5556 3 78.5169C3 67.4782 12.5436 58.5291 24.3157 58.5291C36.0877 58.5291 45.6322 67.4782 45.6322 78.5169ZM45.6322 78.5169H125M125 78.5169C125 89.5565 115.456 98.5047 103.684 98.5047C91.9123 98.5047 82.3678 89.5556 82.3678 78.5169C82.3678 67.4782 91.9114 58.5291 103.684 58.5291C115.457 58.5291 125 67.4782 125 78.5169Z" stroke="url(#paint0_linear_86_134)" stroke-width="6" stroke-linejoin="round"/>
<path d="M42.0905 40.8655C41.1391 40.8655 40.2709 41.367 39.8556 42.1567L39.6918 42.4716C39.2476 42.8568 38.9726 43.3792 38.9191 43.9396L21.2481 77.5544C20.8758 78.2642 20.9248 79.0999 21.3795 79.7677C21.8333 80.4355 22.6279 80.8409 23.4838 80.8409H56.8223C57.6511 80.8409 58.4255 80.4589 58.8854 79.8242C59.3462 79.1895 59.433 78.3845 59.1167 77.6779L44.6661 45.444H85.8996L101.225 79.4302C101.751 80.597 103.204 81.1501 104.47 80.6656C105.736 80.1803 106.335 78.8407 105.809 77.6739L89.8489 42.277C89.4634 41.4235 88.5593 40.8663 87.5571 40.8663H42.0922L42.0905 40.8655ZM41.2959 49.915L53.1087 76.2624H27.4462L41.2959 49.915Z" fill="url(#paint1_linear_86_134)"/>
<path d="M81.4894 27.8502C80.6573 27.8502 79.8806 28.233 79.4185 28.8693C78.9572 29.5056 78.8711 30.3114 79.1909 31.018L95.1977 66.4147C95.7258 67.5824 97.1825 68.1347 98.453 67.6502C99.7226 67.1641 100.324 65.8253 99.7955 64.6577L85.2209 32.4278H97.2633L98.0655 36.1261C98.1947 36.7212 98.5751 37.2453 99.1243 37.5828C99.6734 37.9203 100.346 38.0423 100.994 37.9244C101.642 37.8065 102.213 37.456 102.58 36.9514C102.947 36.4467 103.081 35.8281 102.952 35.2322L101.752 29.6921C101.52 28.6214 100.498 27.8502 99.3088 27.8502H81.4912H81.4894Z" fill="url(#paint2_linear_86_134)"/>
<path d="M35 32.4985L48.651 66.3877C49.1305 67.5773 50.4533 68.1412 51.6069 67.6464C52.7598 67.1516 53.3055 65.7859 52.826 64.5963L39.8963 32.4985H35Z" fill="url(#paint3_linear_86_134)"/>
<path d="M25.8849 27.8502H48.0848C50.4118 27.8502 54.689 32.7245 52.2938 32.7245H42.6149C41.3531 32.7245 41.6495 35.2875 40.3852 35.2875H28.8853C26.2768 35.2875 23.5516 27.8502 25.8849 27.8502Z" fill="url(#paint4_linear_86_134)"/>
<path d="M57 78.0521L89 48.3029" stroke="url(#paint5_linear_86_134)" stroke-width="6" stroke-linecap="round"/>
</g>
<g opacity="0.3">
<path d="M1091.63 73.8686C1091.63 84.9081 1082.09 93.8564 1070.32 93.8564C1058.54 93.8564 1049 84.9073 1049 73.8686C1049 62.8299 1058.54 53.8808 1070.32 53.8808C1082.09 53.8808 1091.63 62.8299 1091.63 73.8686ZM1091.63 73.8686H1171M1171 73.8686C1171 84.9081 1161.46 93.8564 1149.68 93.8564C1137.91 93.8564 1128.37 84.9073 1128.37 73.8686C1128.37 62.8299 1137.91 53.8808 1149.68 53.8808C1161.46 53.8808 1171 62.8299 1171 73.8686Z" stroke="url(#paint6_linear_86_134)" stroke-width="6" stroke-linejoin="round"/>
<path d="M1088.09 36.2172C1087.14 36.2172 1086.27 36.7187 1085.86 37.5084L1085.69 37.8233C1085.25 38.2085 1084.97 38.7309 1084.92 39.2913L1067.25 72.9061C1066.88 73.6159 1066.92 74.4516 1067.38 75.1194C1067.83 75.7872 1068.63 76.1925 1069.48 76.1925H1102.82C1103.65 76.1925 1104.43 75.8106 1104.89 75.1759C1105.35 74.5412 1105.43 73.7362 1105.12 73.0296L1090.67 40.7957H1131.9L1147.22 74.7819C1147.75 75.9487 1149.2 76.5018 1150.47 76.0173C1151.74 75.532 1152.34 74.1924 1151.81 73.0256L1135.85 37.6287C1135.46 36.7752 1134.56 36.218 1133.56 36.218L1088.09 36.2172ZM1087.3 45.2667L1099.11 71.6141H1073.45L1087.3 45.2667Z" fill="url(#paint7_linear_86_134)"/>
<path d="M1127.49 23.2019C1126.66 23.2019 1125.88 23.5847 1125.42 24.2209C1124.96 24.8572 1124.87 25.6631 1125.19 26.3697L1141.2 61.7664C1141.73 62.9341 1143.18 63.4864 1144.45 63.0019C1145.72 62.5158 1146.32 61.177 1145.8 60.0094L1131.22 27.7795H1143.26L1144.07 31.4778C1144.19 32.0729 1144.58 32.597 1145.12 32.9345C1145.67 33.272 1146.35 33.3939 1146.99 33.2761C1147.64 33.1582 1148.21 32.8077 1148.58 32.303C1148.95 31.7984 1149.08 31.1798 1148.95 30.5839L1147.75 25.0438C1147.52 23.973 1146.5 23.2019 1145.31 23.2019H1127.49Z" fill="url(#paint8_linear_86_134)"/>
<path d="M1081 27.8502L1094.65 61.7393C1095.13 62.9289 1096.45 63.4929 1097.61 62.9981C1098.76 62.5033 1099.31 61.1375 1098.83 59.948L1085.9 27.8502H1081Z" fill="url(#paint9_linear_86_134)"/>
<path d="M1071.88 23.2019H1094.08C1096.41 23.2019 1100.69 28.0762 1098.29 28.0762H1088.61C1087.35 28.0762 1087.65 30.6392 1086.39 30.6392H1074.89C1072.28 30.6392 1069.55 23.2019 1071.89 23.2019H1071.88Z" fill="url(#paint10_linear_86_134)"/>
<path d="M1103 73.4038L1135 43.6545" stroke="url(#paint11_linear_86_134)" stroke-width="6" stroke-linecap="round"/>
</g>
<g opacity="0.8">
<path d="M105 86L219.576 17L300 86L421 115L538 40.5L723 17L804.13 104.471L943.5 40.5L1068.5 78" stroke="url(#paint12_linear_86_134)" stroke-opacity="0.3" stroke-width="4" stroke-dasharray="8 8"/>
<path d="M216.5 32C224.508 32 231 25.5081 231 17.5C231 9.49187 224.508 3 216.5 3C208.492 3 202 9.49187 202 17.5C202 25.5081 208.492 32 216.5 32Z" fill="url(#paint13_linear_86_134)" fill-opacity="0.3" stroke="url(#paint14_linear_86_134)" stroke-opacity="0.3" stroke-width="6"/>
<path d="M298.5 103C306.508 103 313 96.5081 313 88.5C313 80.4919 306.508 74 298.5 74C290.492 74 284 80.4919 284 88.5C284 96.5081 290.492 103 298.5 103Z" fill="url(#paint15_linear_86_134)" fill-opacity="0.3" stroke="url(#paint16_linear_86_134)" stroke-opacity="0.3" stroke-width="6"/>
<path d="M420.5 130C428.508 130 435 123.508 435 115.5C435 107.492 428.508 101 420.5 101C412.492 101 406 107.492 406 115.5C406 123.508 412.492 130 420.5 130Z" fill="url(#paint17_linear_86_134)" fill-opacity="0.3" stroke="url(#paint18_linear_86_134)" stroke-opacity="0.3" stroke-width="6"/>
<path d="M538.5 56C546.508 56 553 49.5081 553 41.5C553 33.4919 546.508 27 538.5 27C530.492 27 524 33.4919 524 41.5C524 49.5081 530.492 56 538.5 56Z" fill="url(#paint19_linear_86_134)" fill-opacity="0.3" stroke="url(#paint20_linear_86_134)" stroke-opacity="0.3" stroke-width="6"/>
<path d="M723.5 33C731.508 33 738 26.5081 738 18.5C738 10.4919 731.508 4 723.5 4C715.492 4 709 10.4919 709 18.5C709 26.5081 715.492 33 723.5 33Z" fill="url(#paint21_linear_86_134)" fill-opacity="0.3" stroke="url(#paint22_linear_86_134)" stroke-opacity="0.3" stroke-width="6"/>
<path d="M803.5 121C811.508 121 818 114.508 818 106.5C818 98.4919 811.508 92 803.5 92C795.492 92 789 98.4919 789 106.5C789 114.508 795.492 121 803.5 121Z" fill="url(#paint23_linear_86_134)" fill-opacity="0.3" stroke="url(#paint24_linear_86_134)" stroke-opacity="0.3" stroke-width="6"/>
<path d="M942.5 59C950.508 59 957 52.5081 957 44.5C957 36.4919 950.508 30 942.5 30C934.492 30 928 36.4919 928 44.5C928 52.5081 934.492 59 942.5 59Z" fill="url(#paint25_linear_86_134)" fill-opacity="0.3" stroke="url(#paint26_linear_86_134)" stroke-opacity="0.3" stroke-width="6"/>
</g>
</g>
<defs>
<linearGradient id="paint0_linear_86_134" x1="64" y1="58.5291" x2="64" y2="98.5047" gradientUnits="userSpaceOnUse">
<stop stop-color="#26B1B1"/>
<stop offset="1" stop-color="#ECA0FF"/>
</linearGradient>
<linearGradient id="paint1_linear_86_134" x1="63.5" y1="40.8655" x2="63.5" y2="80.8411" gradientUnits="userSpaceOnUse">
<stop stop-color="#26B1B1"/>
<stop offset="1" stop-color="#ECA0FF"/>
</linearGradient>
<linearGradient id="paint2_linear_86_134" x1="91" y1="27.8502" x2="91" y2="67.8258" gradientUnits="userSpaceOnUse">
<stop stop-color="#26B1B1"/>
<stop offset="1" stop-color="#ECA0FF"/>
</linearGradient>
<linearGradient id="paint3_linear_86_134" x1="44" y1="32.4985" x2="44" y2="67.8258" gradientUnits="userSpaceOnUse">
<stop stop-color="#26B1B1"/>
<stop offset="1" stop-color="#ECA0FF"/>
</linearGradient>
<linearGradient id="paint4_linear_86_134" x1="39" y1="27.8502" x2="39" y2="35.2875" gradientUnits="userSpaceOnUse">
<stop stop-color="#26B1B1"/>
<stop offset="1" stop-color="#ECA0FF"/>
</linearGradient>
<linearGradient id="paint5_linear_86_134" x1="73" y1="48.3029" x2="73" y2="78.0521" gradientUnits="userSpaceOnUse">
<stop stop-color="#26B1B1"/>
<stop offset="1" stop-color="#ECA0FF"/>
</linearGradient>
<linearGradient id="paint6_linear_86_134" x1="1110" y1="53.8808" x2="1110" y2="93.8564" gradientUnits="userSpaceOnUse">
<stop stop-color="#ECA0FF"/>
<stop offset="1" stop-color="#26B1B1"/>
</linearGradient>
<linearGradient id="paint7_linear_86_134" x1="1109.5" y1="36.2172" x2="1109.5" y2="76.1928" gradientUnits="userSpaceOnUse">
<stop stop-color="#ECA0FF"/>
<stop offset="1" stop-color="#26B1B1"/>
</linearGradient>
<linearGradient id="paint8_linear_86_134" x1="1137" y1="23.2019" x2="1137" y2="63.1775" gradientUnits="userSpaceOnUse">
<stop stop-color="#ECA0FF"/>
<stop offset="1" stop-color="#26B1B1"/>
</linearGradient>
<linearGradient id="paint9_linear_86_134" x1="1090" y1="27.8502" x2="1090" y2="63.1775" gradientUnits="userSpaceOnUse">
<stop stop-color="#ECA0FF"/>
<stop offset="1" stop-color="#26B1B1"/>
</linearGradient>
<linearGradient id="paint10_linear_86_134" x1="1085" y1="23.2019" x2="1085" y2="30.6392" gradientUnits="userSpaceOnUse">
<stop stop-color="#ECA0FF"/>
<stop offset="1" stop-color="#26B1B1"/>
</linearGradient>
<linearGradient id="paint11_linear_86_134" x1="1119" y1="43.6545" x2="1119" y2="73.4038" gradientUnits="userSpaceOnUse">
<stop stop-color="#ECA0FF"/>
<stop offset="1" stop-color="#26B1B1"/>
</linearGradient>
<linearGradient id="paint12_linear_86_134" x1="105" y1="66" x2="1068.5" y2="66" gradientUnits="userSpaceOnUse">
<stop stop-color="#26B1B1"/>
<stop offset="1" stop-color="#ECA0FF"/>
</linearGradient>
<linearGradient id="paint13_linear_86_134" x1="202" y1="17.5" x2="231" y2="17.5" gradientUnits="userSpaceOnUse">
<stop stop-color="#26B1B1"/>
<stop offset="1" stop-color="#ECA0FF"/>
</linearGradient>
<linearGradient id="paint14_linear_86_134" x1="202" y1="17.5" x2="231" y2="17.5" gradientUnits="userSpaceOnUse">
<stop stop-color="#26B1B1"/>
<stop offset="1" stop-color="#ECA0FF"/>
</linearGradient>
<linearGradient id="paint15_linear_86_134" x1="284" y1="88.5" x2="313" y2="88.5" gradientUnits="userSpaceOnUse">
<stop stop-color="#26B1B1"/>
<stop offset="1" stop-color="#ECA0FF"/>
</linearGradient>
<linearGradient id="paint16_linear_86_134" x1="284" y1="88.5" x2="313" y2="88.5" gradientUnits="userSpaceOnUse">
<stop stop-color="#26B1B1"/>
<stop offset="1" stop-color="#ECA0FF"/>
</linearGradient>
<linearGradient id="paint17_linear_86_134" x1="406" y1="115.5" x2="435" y2="115.5" gradientUnits="userSpaceOnUse">
<stop stop-color="#26B1B1"/>
<stop offset="1" stop-color="#ECA0FF"/>
</linearGradient>
<linearGradient id="paint18_linear_86_134" x1="406" y1="115.5" x2="435" y2="115.5" gradientUnits="userSpaceOnUse">
<stop stop-color="#26B1B1"/>
<stop offset="1" stop-color="#ECA0FF"/>
</linearGradient>
<linearGradient id="paint19_linear_86_134" x1="524" y1="41.5" x2="553" y2="41.5" gradientUnits="userSpaceOnUse">
<stop stop-color="#26B1B1"/>
<stop offset="1" stop-color="#ECA0FF"/>
</linearGradient>
<linearGradient id="paint20_linear_86_134" x1="524" y1="41.5" x2="553" y2="41.5" gradientUnits="userSpaceOnUse">
<stop stop-color="#26B1B1"/>
<stop offset="1" stop-color="#ECA0FF"/>
</linearGradient>
<linearGradient id="paint21_linear_86_134" x1="723.5" y1="4" x2="723.5" y2="33" gradientUnits="userSpaceOnUse">
<stop stop-color="#26B1B1"/>
<stop offset="1" stop-color="#DF87ED"/>
</linearGradient>
<linearGradient id="paint22_linear_86_134" x1="723.5" y1="4" x2="723.5" y2="33" gradientUnits="userSpaceOnUse">
<stop stop-color="#26B1B1"/>
<stop offset="1" stop-color="#ECA0FF"/>
</linearGradient>
<linearGradient id="paint23_linear_86_134" x1="789" y1="106.5" x2="818" y2="106.5" gradientUnits="userSpaceOnUse">
<stop stop-color="#26B1B1"/>
<stop offset="1" stop-color="#ECA0FF"/>
</linearGradient>
<linearGradient id="paint24_linear_86_134" x1="789" y1="106.5" x2="818" y2="106.5" gradientUnits="userSpaceOnUse">
<stop stop-color="#26B1B1"/>
<stop offset="1" stop-color="#ECA0FF"/>
</linearGradient>
<linearGradient id="paint25_linear_86_134" x1="928" y1="44.5" x2="957" y2="44.5" gradientUnits="userSpaceOnUse">
<stop stop-color="#26B1B1"/>
<stop offset="1" stop-color="#ECA0FF"/>
</linearGradient>
<linearGradient id="paint26_linear_86_134" x1="928" y1="44.5" x2="957" y2="44.5" gradientUnits="userSpaceOnUse">
<stop stop-color="#26B1B1"/>
<stop offset="1" stop-color="#ECA0FF"/>
</linearGradient>
<clipPath id="clip0_86_134">
<rect width="1174" height="133" fill="white"/>
</clipPath>
</defs>
</svg>
